<?xml version="1.0" standalone="no"?>
<!DOCTYPE svg PUBLIC "-//W3C//DTD SVG 20010904//EN"
 "http://www.w3.org/TR/2001/REC-SVG-20010904/DTD/svg10.dtd">
<svg version="1.0" xmlns="http://www.w3.org/2000/svg"
 width="900.000000pt" height="520.000000pt" viewBox="0 0 900.000000 520.000000"
 preserveAspectRatio="xMidYMid meet">
<metadata>
Created by potrace 1.16, written by Peter Selinger 2001-2019
</metadata>
<g transform="translate(0.000000,520.000000) scale(0.100000,-0.100000)"
fill="#74443e" stroke="none">
<path d="M4425 3586 c-22 -7 -53 -21 -68 -31 -32 -20 -1400 -1589 -1434 -1644
-41 -65 -24 -147 43 -197 l37 -29 1471 -3 c809 -1 1486 0 1504 3 18 3 49 22
71 43 46 43 60 94 42 152 -8 27 -192 246 -687 816 -371 429 -697 800 -723 826
-71 69 -164 93 -256 64z"/>
</g>
</svg>
