<?xml version="1.0" standalone="no"?>
<!DOCTYPE svg PUBLIC "-//W3C//DTD SVG 20010904//EN"
 "http://www.w3.org/TR/2001/REC-SVG-20010904/DTD/svg10.dtd">
<svg version="1.0" xmlns="http://www.w3.org/2000/svg"
 width="920.000000pt" height="512.000000pt" viewBox="0 0 920.000000 512.000000"
 preserveAspectRatio="xMidYMid meet">
<metadata>
Created by potrace 1.16, written by Peter Selinger 2001-2019
</metadata>
<g transform="translate(0.000000,512.000000) scale(0.100000,-0.100000)"
fill="#000000" stroke="none">
<path d="M6298 4638 c-9 -7 -96 -206 -193 -443 -97 -236 -185 -449 -195 -472
-21 -47 -21 -47 47 -33 26 5 152 26 278 46 127 20 248 44 270 53 47 21 108 85
130 137 22 53 19 97 -21 335 -37 221 -51 265 -106 316 -52 49 -178 86 -210 61z"/>
<path d="M5555 4524 c-5 -2 -125 -22 -265 -44 -140 -23 -256 -43 -258 -45 -2
-2 -46 -106 -98 -232 -213 -511 -295 -716 -290 -720 2 -2 134 17 293 42 l289
47 193 467 c107 256 196 472 198 479 5 11 -37 16 -62 6z"/>
<path d="M4063 4283 l-272 -46 -36 -86 c-168 -400 -356 -864 -351 -868 3 -3
119 13 258 36 139 23 263 41 274 41 12 0 26 6 31 13 5 6 37 80 71 162 33 83
117 286 185 451 145 350 143 344 125 343 -7 -1 -135 -22 -285 -46z"/>
<path d="M3050 4119 c-25 -5 -140 -25 -257 -44 -225 -36 -266 -50 -320 -107
-70 -72 -78 -139 -44 -335 12 -67 22 -134 23 -148 1 -14 4 -25 6 -25 3 0 22
16 43 35 79 71 204 116 331 119 l79 1 48 115 c107 256 161 388 161 394 0 7
-11 6 -70 -5z"/>
<path d="M2714 3379 c-116 -44 -194 -157 -194 -279 0 -88 22 -149 75 -208 151
-168 428 -126 520 79 24 55 27 71 23 139 -4 62 -10 88 -35 131 -34 61 -106
121 -172 144 -61 21 -155 18 -217 -6z"/>
<path d="M3347 3033 c-2 -5 -8 -26 -11 -48 -4 -22 -23 -73 -43 -114 -100 -210
-343 -328 -575 -280 -65 13 -184 69 -220 103 -15 15 -30 26 -33 26 -11 0 -5
-1897 6 -1950 14 -68 62 -128 128 -162 l53 -28 1922 0 c1258 0 1934 4 1957 10
49 14 122 80 148 133 21 43 21 50 21 1083 0 985 -1 1041 -19 1079 -24 53 -75
103 -131 129 -45 21 -47 21 -1622 24 -867 1 -1579 -1 -1581 -5z m1473 -313
c263 -67 498 -256 616 -496 154 -315 119 -696 -89 -969 -185 -243 -456 -376
-767 -376 -536 -2 -970 442 -947 966 19 438 320 790 757 884 123 27 303 23
430 -9z"/>
<path d="M4488 2500 c-55 -17 -140 -74 -169 -113 -49 -67 -63 -133 -49 -233 9
-70 8 -92 -4 -128 -8 -24 -13 -52 -11 -62 2 -11 6 -31 10 -46 3 -15 16 -38 30
-50 15 -14 31 -47 40 -80 8 -31 28 -78 45 -104 24 -39 30 -59 30 -103 0 -131
-32 -170 -203 -254 -83 -41 -125 -68 -155 -101 -23 -25 -42 -50 -42 -55 0 -15
98 -81 185 -125 177 -91 417 -114 619 -60 85 23 230 95 300 150 l58 46 -38 40
c-26 27 -74 57 -144 90 -179 84 -233 146 -234 268 -1 57 3 71 31 114 18 27 38
73 44 102 8 36 20 59 35 69 39 25 56 117 30 166 -11 21 -11 44 -3 119 16 138
-15 225 -105 290 -77 56 -219 84 -300 60z"/>
</g>
</svg>
