<?xml version="1.0" standalone="no"?>
<!DOCTYPE svg PUBLIC "-//W3C//DTD SVG 20010904//EN"
 "http://www.w3.org/TR/2001/REC-SVG-20010904/DTD/svg10.dtd">
<svg version="1.0" xmlns="http://www.w3.org/2000/svg"
 width="840.000000pt" height="777.000000pt" viewBox="0 0 840.000000 777.000000"
 preserveAspectRatio="xMidYMid meet">
<metadata>
Created by potrace 1.16, written by Peter Selinger 2001-2019
</metadata>
<g transform="translate(0.000000,777.000000) scale(0.100000,-0.100000)"
fill="black" stroke="blue">
<path d="M576 7349 c-115 -27 -256 -138 -315 -248 -65 -122 -61 45 -61 -2496
0 -2526 -4 -2359 57 -2484 39 -81 135 -174 224 -216 41 -19 98 -39 128 -45 32
-6 262 -10 567 -10 l514 0 2 -42 c1 -24 2 -315 2 -648 l1 -605 28 -57 c62
-127 214 -177 335 -110 36 19 264 237 777 742 l726 715 2122 5 2122 5 60 24
c168 67 290 206 324 369 8 38 11 718 11 2360 0 2538 4 2371 -61 2493 -47 87
-127 162 -227 212 l-85 42 -3606 2 c-2145 0 -3622 -3 -3645 -8z m7124 -2744
l0 -2255 -2169 0 -2170 0 -578 -569 -578 -569 -3 569 -2 569 -750 0 -750 0 0
2255 0 2255 3500 0 3500 0 0 -2255z"/>
<path d="M1845 5826 c-145 -67 -189 -251 -91 -379 14 -19 50 -47 78 -63 l53
-29 2315 0 2315 0 53 29 c183 102 173 359 -18 445 -45 20 -53 21 -2350 21
l-2305 0 -50 -24z"/>
<path d="M1850 4829 c-189 -86 -200 -344 -18 -444 l53 -30 2315 0 2315 0 53
29 c183 102 173 359 -18 445 -45 20 -52 21 -2350 21 -2298 0 -2305 -1 -2350
-21z"/>
<path d="M1845 3826 c-145 -67 -189 -251 -91 -379 14 -19 50 -47 78 -63 l53
-29 1565 0 1565 0 53 29 c183 102 173 359 -18 445 -45 20 -57 21 -1600 21
l-1555 0 -50 -24z"/>
</g>
</svg>
