<?xml version="1.0" standalone="no"?>
<!DOCTYPE svg PUBLIC "-//W3C//DTD SVG 20010904//EN"
 "http://www.w3.org/TR/2001/REC-SVG-20010904/DTD/svg10.dtd">
<svg version="1.0" xmlns="http://www.w3.org/2000/svg"
 width="512.000000pt" height="512.000000pt" viewBox="0 0 512.000000 512.000000"
 preserveAspectRatio="xMidYMid meet">
<metadata>
Created by potrace 1.16, written by Peter Selinger 2001-2019
</metadata>
<g transform="translate(0.000000,512.000000) scale(0.100000,-0.100000)"
fill="#000000" stroke="none">
<path d="M203 4958 c-174 -172 -196 -198 -191 -231 3 -19 32 5 192 163 103
102 192 193 197 203 8 14 5 17 -17 17 -21 0 -60 -33 -181 -152z"/>
<path d="M303 4858 c-140 -139 -264 -265 -275 -281 -10 -15 -18 -37 -16 -50 3
-18 49 23 292 263 158 157 292 293 297 303 8 14 5 17 -17 17 -22 0 -75 -47
-281 -252z"/>
<path d="M402 4758 c-194 -194 -362 -365 -373 -381 -11 -15 -19 -37 -17 -50 4
-18 67 40 392 363 213 212 392 393 397 403 8 14 5 17 -18 17 -22 0 -89 -62
-381 -352z"/>
<path d="M502 4658 c-249 -249 -462 -465 -473 -481 -11 -15 -19 -37 -17 -50 4
-18 84 57 492 463 268 267 492 493 497 503 8 14 5 17 -18 17 -22 0 -104 -76
-481 -452z"/>
<path d="M602 4558 c-304 -304 -562 -565 -573 -581 -11 -15 -19 -37 -17 -50 4
-18 101 75 592 563 323 322 592 593 597 603 8 14 5 17 -18 17 -23 0 -118 -91
-581 -552z"/>
<path d="M702 4458 c-359 -359 -662 -665 -673 -681 -11 -15 -19 -37 -17 -50 4
-18 118 92 692 663 378 377 692 693 697 703 8 14 5 17 -18 17 -23 0 -133 -106
-681 -652z"/>
<path d="M802 4358 c-414 -414 -762 -765 -773 -781 -11 -15 -19 -37 -17 -50 4
-18 136 109 792 763 433 432 792 793 797 803 8 14 5 17 -18 17 -23 0 -148
-120 -781 -752z"/>
<path d="M902 4258 c-469 -469 -862 -865 -873 -881 -11 -15 -19 -37 -17 -50 4
-18 57 31 337 308 301 299 329 324 293 265 -22 -36 -56 -99 -77 -140 -33 -67
-64 -102 -296 -336 -209 -210 -259 -266 -259 -287 0 -15 3 -27 7 -27 4 0 110
102 236 228 127 125 227 219 224 209 -4 -10 -16 -50 -28 -90 l-22 -72 -208
-211 c-166 -168 -209 -216 -209 -237 0 -15 3 -27 7 -27 4 0 94 87 201 193 163
162 193 187 189 162 -3 -16 -9 -50 -13 -75 -6 -42 -18 -57 -195 -236 -150
-151 -189 -197 -189 -218 0 -14 3 -26 7 -26 4 0 87 80 185 177 l178 177 0 -64
0 -64 -185 -187 c-147 -148 -185 -192 -185 -213 0 -22 3 -25 18 -17 9 5 91 84
182 175 91 91 168 166 172 166 5 0 8 -26 8 -57 l0 -57 -190 -192 c-150 -151
-190 -197 -190 -218 0 -14 3 -26 7 -26 4 0 91 84 194 186 103 102 189 182 192
177 2 -4 8 -28 12 -51 l7 -44 -206 -207 c-164 -166 -206 -213 -206 -234 0 -15
3 -27 7 -27 4 0 100 93 214 206 l207 206 12 -52 12 -52 -226 -227 c-182 -184
-226 -233 -226 -255 0 -22 3 -25 18 -17 9 5 114 107 232 225 118 119 218 216
222 216 3 0 13 -19 21 -42 l15 -43 -254 -256 c-205 -206 -254 -261 -254 -282
0 -15 3 -27 7 -27 4 0 123 115 264 256 l257 257 22 -43 22 -43 -286 -286
c-232 -233 -286 -293 -286 -314 0 -15 3 -27 7 -27 4 0 138 131 298 290 l291
291 26 -38 25 -38 -324 -326 c-265 -267 -323 -330 -323 -352 0 -23 3 -26 18
-18 9 5 161 154 336 330 l320 320 27 -37 28 -37 -365 -366 c-298 -299 -364
-370 -364 -392 0 -15 3 -27 7 -27 4 0 175 168 381 372 l373 373 29 -35 29 -35
-410 -411 c-339 -340 -409 -415 -409 -437 0 -23 3 -26 18 -18 9 5 201 194 427
420 l409 411 33 -32 33 -32 -460 -461 c-380 -380 -460 -466 -460 -488 0 -15 3
-27 7 -27 4 0 220 212 480 472 l472 471 36 -28 37 -28 -516 -516 c-430 -431
-516 -521 -516 -544 0 -23 3 -26 18 -18 9 5 251 244 536 529 l519 520 39 -26
39 -25 -575 -577 c-478 -478 -576 -580 -576 -603 0 -15 3 -27 7 -27 4 0 273
266 598 590 l591 591 42 -23 41 -23 -639 -640 c-532 -533 -640 -645 -640 -668
0 -15 3 -27 7 -27 4 0 303 295 664 656 l657 657 47 -18 47 -18 -686 -686
c-377 -378 -686 -690 -686 -694 0 -4 12 -7 27 -7 23 0 142 114 713 685 l686
685 34 -11 c19 -6 42 -13 49 -15 10 -3 -225 -245 -647 -667 -364 -364 -662
-666 -662 -670 0 -4 12 -7 27 -7 23 0 139 111 693 665 571 570 668 664 688
659 18 -5 22 -13 22 -43 0 -34 -27 -63 -606 -641 -333 -333 -610 -613 -615
-622 -8 -15 -5 -18 18 -18 23 0 123 96 615 587 l588 588 0 -65 0 -65 -506
-505 c-278 -278 -510 -513 -515 -522 -8 -15 -5 -18 18 -18 23 0 109 81 515
487 l488 488 0 -65 0 -65 -406 -405 c-223 -223 -410 -413 -415 -422 -8 -15 -5
-18 18 -18 22 0 94 67 415 387 l388 387 0 -64 0 -65 -306 -305 c-168 -168
-310 -313 -315 -322 -8 -15 -5 -18 17 -18 23 0 80 52 313 285 l286 285 13 -52
12 -52 -225 -226 c-124 -124 -225 -229 -225 -233 0 -4 12 -7 27 -7 21 0 70 43
242 213 l216 214 38 -25 38 -26 -181 -181 c-99 -100 -180 -184 -180 -188 0 -4
12 -7 26 -7 21 0 68 41 219 190 132 131 199 190 214 190 50 0 57 7 381 345
583 611 546 575 599 575 l46 0 -643 -643 c-353 -353 -642 -646 -642 -650 0 -4
12 -7 27 -7 23 0 137 109 678 650 l650 650 65 0 65 0 -643 -643 c-353 -353
-642 -646 -642 -650 0 -4 12 -7 27 -7 23 0 137 109 678 650 l650 650 65 0 65
0 -643 -643 c-353 -353 -642 -646 -642 -650 0 -4 12 -7 27 -7 23 0 137 110
683 654 l655 654 59 7 c33 4 66 9 75 12 9 3 -280 -291 -641 -653 -362 -363
-658 -663 -658 -667 0 -4 12 -7 27 -7 23 0 142 115 708 680 374 374 688 680
697 680 9 0 52 14 95 30 l78 30 -703 -703 c-386 -386 -702 -706 -702 -710 0
-4 12 -7 27 -7 23 0 151 124 773 744 568 567 762 754 815 788 188 121 349 281
474 473 38 58 123 151 312 341 209 210 259 266 259 287 0 15 -3 27 -7 27 -4 0
-103 -96 -221 -212 -192 -192 -211 -208 -194 -168 10 25 27 70 37 100 16 49
36 74 201 241 145 147 184 192 184 213 0 14 -3 26 -7 26 -4 0 -79 -72 -168
-160 l-161 -160 16 80 16 79 152 155 c118 119 152 159 152 180 0 14 -3 26 -7
26 -3 0 -69 -62 -145 -137 l-138 -137 0 64 0 64 145 147 c112 113 145 153 145
173 0 14 -3 26 -7 26 -3 0 -69 -62 -145 -137 l-138 -137 0 64 0 64 145 147
c112 113 145 153 145 173 0 14 -3 26 -7 26 -3 0 -71 -64 -149 -141 l-142 -141
-7 56 -7 57 156 158 c121 124 156 164 156 185 0 14 -3 26 -7 26 -4 0 -77 -70
-163 -155 l-156 -156 -12 52 -12 52 175 177 c138 140 175 183 175 204 0 14 -3
26 -7 26 -4 0 -86 -79 -184 -176 l-177 -176 -16 48 -16 48 200 201 c159 161
200 207 200 229 0 14 -3 26 -7 26 -4 0 -98 -91 -209 -201 l-202 -202 -22 43
-22 42 231 233 c187 187 231 237 231 259 0 22 -3 25 -17 17 -10 -5 -119 -111
-242 -235 l-225 -225 -23 41 -24 41 266 267 c214 215 265 272 265 293 0 15 -3
27 -7 27 -4 0 -129 -122 -279 -271 l-272 -271 -26 38 -26 38 305 306 c248 249
305 311 305 333 0 15 -3 27 -7 27 -4 0 -148 -140 -320 -312 l-313 -312 -29 34
-30 35 350 351 c285 286 349 355 349 377 0 15 -3 27 -7 27 -4 0 -168 -161
-365 -357 l-358 -358 -32 33 -33 32 398 398 c326 327 397 403 397 425 0 15 -3
27 -7 27 -4 0 -191 -183 -415 -407 l-407 -406 -36 28 -37 28 396 396 c218 218
396 400 396 404 0 4 -12 7 -27 7 -22 0 -96 -69 -414 -387 l-388 -386 -35 24
c-20 13 -36 26 -36 29 0 3 153 158 341 345 187 187 345 348 350 358 8 14 5 17
-18 17 -22 0 -88 -61 -374 -346 l-347 -346 -41 23 -42 23 316 316 c173 174
315 319 315 323 0 4 -12 7 -27 7 -22 0 -84 -58 -338 -310 l-311 -310 -42 16
c-23 10 -42 20 -42 23 0 3 122 128 271 276 148 149 275 278 280 288 8 14 5 17
-17 17 -23 0 -79 -51 -309 -280 l-281 -280 -48 16 -48 17 256 256 c141 141
256 260 256 264 0 4 -12 7 -27 7 -21 0 -76 -50 -284 -256 l-257 -256 -43 7
c-24 4 -48 10 -53 12 -4 3 98 112 228 242 130 130 236 240 236 244 0 4 -12 7
-27 7 -21 0 -74 -47 -268 -240 l-241 -240 -44 0 c-25 0 -50 4 -57 8 -8 5 58
78 203 222 118 118 220 223 225 233 8 14 5 17 -17 17 -22 0 -72 -45 -264 -235
l-236 -235 -64 0 -64 0 227 228 c125 125 227 231 227 235 0 4 -12 7 -27 7 -21
0 -73 -46 -263 -235 l-236 -235 -64 0 -64 0 227 228 c125 125 227 231 227 235
0 4 -12 7 -27 7 -21 0 -73 -46 -263 -235 l-236 -235 -64 0 -64 0 227 228 c125
125 227 231 227 235 0 4 -12 7 -27 7 -21 0 -73 -46 -263 -235 l-236 -235 -64
0 -64 0 227 228 c125 125 227 231 227 235 0 4 -12 7 -27 7 -21 0 -73 -46 -263
-235 l-236 -235 -64 0 -64 0 227 228 c125 125 227 231 227 235 0 4 -12 7 -27
7 -21 0 -73 -46 -263 -235 l-236 -235 -64 0 -64 0 227 228 c125 125 227 231
227 235 0 4 -12 7 -27 7 -21 0 -73 -46 -263 -235 l-236 -235 -64 0 -64 0 227
228 c125 125 227 231 227 235 0 4 -12 7 -27 7 -21 0 -73 -46 -262 -234 l-236
-235 -70 -7 -70 -6 233 234 c127 129 232 237 232 241 0 4 -12 7 -27 7 -21 0
-75 -48 -274 -247 l-249 -247 -86 -22 -87 -23 261 263 c144 144 262 265 262
269 0 4 -12 7 -27 7 -22 0 -81 -55 -317 -289 -288 -286 -292 -290 -391 -340
-55 -27 -116 -60 -135 -72 -19 -12 124 137 318 332 193 195 352 358 352 362 0
4 -12 7 -27 7 -23 0 -168 -140 -881 -852z m438 -563 c-310 -310 -566 -562
-568 -560 -2 2 1 35 8 72 l11 69 487 486 c325 325 495 488 512 491 14 2 45 5
70 6 l45 1 -565 -565z m95 -105 l-670 -670 -3 62 -3 62 608 608 608 608 65 0
65 0 -670 -670z m110 -90 c-417 -417 -761 -757 -764 -755 -2 3 -8 26 -12 52
l-7 48 706 708 707 707 65 0 65 0 -760 -760z m115 -85 l-845 -845 -13 52 -13
52 793 793 793 793 65 0 65 0 -845 -845z m130 -70 c-503 -503 -917 -915 -920
-915 -3 0 -13 19 -22 43 l-16 42 871 873 872 872 65 0 65 0 -915 -915z m1110
912 c0 -1 -443 -445 -984 -986 l-984 -984 -22 43 -22 43 944 944 943 943 62 0
c35 0 63 -1 63 -3z m200 0 c0 -1 -470 -472 -1044 -1046 l-1044 -1044 -26 39
-26 39 1007 1007 1008 1008 62 0 c35 0 63 -1 63 -3z m-897 -1099 l-1103 -1103
-29 35 -30 35 1067 1068 1067 1067 65 0 65 0 -1102 -1102z m1269 1083 c4 -4
-505 -519 -1132 -1146 l-1140 -1140 -32 33 -33 32 1120 1120 1119 1119 46 -6
c25 -3 48 -9 52 -12z m-1802 -14 c0 -1 -192 -193 -426 -427 -264 -263 -423
-415 -419 -400 4 14 23 61 41 106 34 79 37 83 327 371 239 237 300 293 337
307 127 46 140 50 140 43z m1949 -19 c23 -8 -47 -81 -1139 -1173 -640 -640
-1169 -1161 -1174 -1158 -6 4 -24 16 -39 27 l-28 20 1153 1153 c1044 1044
1155 1152 1178 1146 14 -3 36 -10 49 -15z m123 -49 l41 -21 -1169 -1169 c-643
-643 -1173 -1169 -1178 -1169 -5 0 -24 10 -43 21 l-35 22 1168 1168 c643 643
1170 1169 1172 1169 1 0 21 -9 44 -21z m130 -72 l38 -22 -1164 -1164 -1163
-1163 -39 12 c-22 7 -43 15 -48 18 -7 4 2322 2342 2334 2342 3 0 22 -10 42
-23z m114 -84 l35 -26 -1138 -1139 -1138 -1139 -43 5 c-24 3 -48 9 -54 12 -8
5 2287 2314 2300 2314 2 0 19 -12 38 -27z m-963 -1225 l-1098 -1098 -57 0
c-32 0 -58 3 -58 7 0 5 505 513 1122 1130 l1123 1123 33 -32 33 -32 -1098
-1098z m1163 1016 l23 -30 -1083 -1083 -1082 -1082 -34 31 -34 31 1085 1085
c596 596 1088 1083 1093 1081 5 -2 20 -17 32 -33z m90 -138 c5 -15 -214 -239
-1097 -1122 l-1104 -1104 -6 57 -6 58 1086 1087 c1085 1087 1086 1088 1103
1065 10 -12 20 -30 24 -41z m57 -108 l17 -43 -1137 -1137 -1138 -1138 -3 62
-3 62 1118 1118 c615 615 1120 1118 1123 1118 3 0 13 -19 23 -42z m58 -150
l11 -41 -839 -840 c-508 -508 -851 -845 -871 -853 -19 -8 -48 -30 -65 -47 -63
-64 -436 -453 -495 -517 l-61 -65 -1 60 0 60 1147 1147 c631 631 1150 1145
1155 1142 4 -3 12 -23 19 -46z m39 -150 l11 -52 -758 -758 -758 -758 -65 0
-65 0 810 810 c445 446 811 810 812 810 1 0 6 -23 13 -52z m-638 -900 l-667
-668 -65 0 -65 0 725 725 725 725 7 -57 7 -58 -667 -667z m661 525 l-5 -68
-562 -562 -561 -563 -65 0 -65 0 630 630 c346 347 631 630 632 630 1 0 0 -30
-4 -67z m-38 -245 l-17 -73 -420 -421 -420 -422 -56 -11 c-30 -6 -65 -11 -76
-11 -15 0 129 150 489 510 280 280 511 507 513 505 3 -2 -3 -37 -13 -77z m-78
-225 c-23 -52 -68 -134 -104 -191 -45 -71 -259 -291 -333 -342 -55 -37 -158
-92 -208 -111 -16 -6 115 132 313 331 187 187 341 340 342 340 1 0 -3 -12 -10
-27z"/>
<path d="M3896 1250 c-669 -668 -1222 -1223 -1227 -1232 -8 -15 -5 -18 18 -18
23 0 210 183 1211 1182 651 651 1192 1195 1203 1211 11 15 19 37 17 50 -4 18
-210 -183 -1222 -1193z"/>
<path d="M3996 1150 c-614 -613 -1122 -1123 -1127 -1132 -8 -15 -5 -18 18 -18
23 0 196 168 1111 1082 596 596 1092 1095 1103 1111 11 15 19 37 17 50 -4 18
-193 -166 -1122 -1093z"/>
<path d="M4096 1050 c-559 -558 -1022 -1023 -1027 -1033 -8 -14 -5 -17 18 -17
23 0 181 153 1011 983 541 540 992 994 1003 1010 11 15 19 37 17 50 -4 18
-175 -149 -1022 -993z"/>
<path d="M4196 950 c-504 -503 -922 -923 -927 -932 -8 -15 -5 -18 18 -18 23 0
167 139 911 882 486 486 892 895 903 911 11 15 19 37 17 50 -4 18 -158 -132
-922 -893z"/>
<path d="M4296 850 c-449 -448 -822 -823 -827 -832 -8 -15 -5 -18 18 -18 23 0
152 124 811 783 431 430 792 794 803 810 11 15 19 37 17 50 -4 18 -141 -114
-822 -793z"/>
<path d="M4396 750 c-394 -393 -722 -723 -727 -732 -8 -15 -5 -18 18 -18 23 0
137 110 711 683 376 375 692 694 703 710 11 15 19 37 17 50 -4 18 -124 -97
-722 -693z"/>
<path d="M4496 650 c-339 -338 -622 -623 -627 -632 -8 -15 -5 -18 18 -18 23 0
123 95 611 583 321 320 592 594 603 610 11 15 19 37 17 50 -4 18 -106 -80
-622 -593z"/>
<path d="M4596 550 c-284 -283 -522 -523 -527 -533 -8 -14 -5 -17 18 -17 23 0
108 81 511 483 266 265 492 494 503 510 11 15 19 37 17 50 -4 18 -89 -62 -522
-493z"/>
<path d="M4696 450 c-229 -228 -422 -423 -427 -432 -8 -15 -5 -18 18 -18 22 0
93 66 411 383 211 210 392 394 403 410 11 15 19 37 17 50 -4 18 -72 -45 -422
-393z"/>
<path d="M4796 350 c-174 -173 -322 -323 -327 -332 -8 -15 -5 -18 17 -18 23 0
80 52 312 282 156 156 293 295 303 311 11 15 19 37 17 50 -4 18 -54 -28 -322
-293z"/>
<path d="M4896 250 c-119 -118 -222 -223 -227 -232 -8 -15 -5 -18 17 -18 21 0
65 37 211 183 205 202 226 227 221 260 -3 19 -37 -11 -222 -193z"/>
<path d="M4996 150 c-136 -133 -149 -150 -111 -150 18 0 49 23 111 82 102 98
127 130 122 161 -3 19 -19 7 -122 -93z"/>
</g>
</svg>
