<?xml version="1.0" encoding="UTF-8" standalone="no"?>
<svg
   xmlns:dc="http://purl.org/dc/elements/1.1/"
   xmlns:cc="http://creativecommons.org/ns#"
   xmlns:rdf="http://www.w3.org/1999/02/22-rdf-syntax-ns#"
   xmlns:svg="http://www.w3.org/2000/svg"
   xmlns="http://www.w3.org/2000/svg"
   xmlns:sodipodi="http://sodipodi.sourceforge.net/DTD/sodipodi-0.dtd"
   xmlns:inkscape="http://www.inkscape.org/namespaces/inkscape"
   version="1.0"
   width="840.000000pt"
   height="404.000000pt"
   viewBox="0 0 840.000000 404.000000"
   preserveAspectRatio="xMidYMid meet"
   id="svg8"
   sodipodi:docname="dislike.svg"
   inkscape:version="0.92.4 (5da689c313, 2019-01-14)">
  <defs
     id="defs12" />
  <sodipodi:namedview
     pagecolor="#ffffff"
     bordercolor="#666666"
     borderopacity="1"
     objecttolerance="10"
     gridtolerance="10"
     guidetolerance="10"
     inkscape:pageopacity="0"
     inkscape:pageshadow="2"
     inkscape:window-width="640"
     inkscape:window-height="480"
     id="namedview10"
     showgrid="false"
     inkscape:zoom="0.35982143"
     inkscape:cx="560"
     inkscape:cy="269.33333"
     inkscape:window-x="0"
     inkscape:window-y="0"
     inkscape:window-maximized="0"
     inkscape:current-layer="svg8" />
  <metadata
     id="metadata2">
Created by potrace 1.16, written by Peter Selinger 2001-2019
<rdf:RDF>
  <cc:Work
     rdf:about="">
    <dc:format>image/svg+xml</dc:format>
    <dc:type
       rdf:resource="http://purl.org/dc/dcmitype/StillImage" />
    <dc:title></dc:title>
  </cc:Work>
</rdf:RDF>
</metadata>
  <g
     transform="matrix(0.1,0,0,0.1,-2.9449456e-6,1.5002548)"
     id="g6"
     style="fill:#000000;stroke:none">
    <path
       d="m 4645,3607 c -16,-8 -36,-12 -42,-10 -7,3 -13,0 -13,-7 0,-6 -4,-9 -9,-6 -13,8 -121,-74 -152,-115 -54,-73 -88,-146 -110,-234 -12,-46 -78,-214 -91,-232 -6,-7 -7,-17 -3,-23 3,-5 2,-10 -4,-10 -5,0 -13,-10 -17,-22 -4,-13 -36,-75 -72,-138 -36,-63 -65,-120 -65,-127 0,-7 -4,-10 -8,-8 -4,3 -9,-1 -12,-8 -2,-6 -26,-38 -51,-70 -26,-31 -44,-57 -40,-57 4,0 -27,-34 -69,-76 -43,-41 -77,-80 -77,-85 0,-6 -4,-8 -8,-5 -5,3 -18,-3 -28,-12 -25,-23 -80,-62 -88,-62 -3,0 -6,34 -6,75 0,78 -13,118 -46,146 -14,11 -98,15 -476,19 -252,3 -458,2 -458,-2 0,-4 -7,-5 -15,-2 -9,4 -29,-8 -50,-29 l -35,-35 v -124 c -3,-1530 0,-1861 15,-1884 38,-59 27,-58 513,-57 380,0 453,3 484,16 57,24 68,56 68,200 0,68 3,126 6,130 4,3 12,0 20,-8 23,-23 273,-111 368,-129 11,-2 28,-7 36,-10 8,-3 26,-8 40,-10 14,-3 43,-10 65,-15 22,-5 58,-12 80,-15 22,-4 81,-13 130,-21 117,-20 210,-33 304,-42 119,-11 399,-8 477,6 95,17 186,45 177,56 -5,4 -2,5 4,1 16,-9 98,36 141,77 19,18 46,55 60,82 23,43 26,61 25,130 -1,44 -8,98 -16,120 l -14,39 47,46 c 25,25 59,72 76,105 24,51 29,72 29,135 -1,77 -8,118 -26,153 -9,15 -6,24 14,46 13,14 22,32 19,40 -3,8 0,11 7,7 6,-4 14,1 17,11 3,10 13,31 21,47 10,19 17,62 19,120 3,90 -3,129 -34,194 -13,28 -13,46 -3,117 14,101 7,150 -31,232 -49,104 -153,181 -294,218 -31,8 -114,20 -185,27 -71,6 -129,15 -129,20 0,4 4,8 9,8 13,0 70,142 94,234 43,166 22,385 -53,541 -41,86 -124,189 -144,178 -6,-3 -8,-2 -3,2 9,10 -21,45 -40,45 -7,0 -13,4 -13,8 0,9 -81,50 -87,44 -2,-1 -16,4 -31,11 -36,18 -179,21 -217,4 z m 170,-277 c 65,-40 114,-129 141,-255 23,-108 19,-171 -16,-272 -17,-48 -32,-96 -33,-105 -1,-9 -4,-15 -7,-13 -3,2 -14,-16 -25,-38 -11,-23 -24,-45 -28,-48 -5,-4 -10,-18 -10,-32 -1,-14 -5,-23 -8,-21 -11,6 -50,-86 -43,-98 4,-6 3,-8 -3,-5 -6,4 -14,-5 -18,-21 -12,-42 -15,-93 -6,-88 5,3 11,-7 14,-22 6,-31 66,-69 92,-58 9,3 13,2 10,-4 -4,-7 65,-10 203,-10 203,1 210,0 264,-24 64,-29 102,-70 119,-125 31,-103 -31,-174 -169,-195 -19,-2 -37,-7 -40,-11 -12,-11 31,-35 62,-35 55,0 133,-44 154,-87 53,-105 -24,-206 -168,-222 -79,-8 -101,-21 -80,-46 7,-9 20,-15 29,-13 31,4 121,-34 151,-64 54,-54 40,-146 -28,-177 -14,-7 -20,-16 -16,-23 4,-6 3,-8 -2,-5 -6,3 -36,-3 -69,-14 -32,-10 -84,-19 -115,-19 -31,0 -64,-6 -75,-13 -17,-13 -17,-15 3,-35 12,-12 34,-23 50,-24 43,-2 44,-2 108,-37 67,-35 84,-60 84,-121 0,-79 -118,-160 -256,-175 -65,-7 -230,-8 -284,-1 -127,17 -232,26 -239,21 -5,-3 -12,-1 -15,4 -3,4 -34,12 -68,16 -91,12 -215,39 -327,72 -29,8 -59,16 -65,17 -6,1 -38,12 -71,25 -33,12 -70,21 -82,18 -12,-2 -21,0 -20,6 3,13 -132,68 -147,60 -6,-3 -7,-2 -3,2 4,5 -12,17 -35,26 l -43,17 -2,466 c -2,292 1,465 7,461 15,-9 177,87 210,125 3,4 15,13 28,22 62,42 255,245 246,259 -3,5 0,8 8,7 7,-2 12,5 12,14 -1,10 2,16 6,15 4,-1 18,12 32,28 33,41 160,225 154,225 -3,0 11,24 30,52 19,29 32,59 29,66 -3,7 -1,11 4,8 10,-6 95,173 87,182 -3,3 0,12 7,21 7,9 19,36 26,61 8,25 17,58 22,74 5,16 9,40 9,54 0,41 40,112 74,133 40,25 100,24 141,-1 z"
       id="path4"
       inkscape:connector-curvature="0" />
  </g>
</svg>
