<?xml version="1.0" standalone="no"?>
<!DOCTYPE svg PUBLIC "-//W3C//DTD SVG 20010904//EN"
 "http://www.w3.org/TR/2001/REC-SVG-20010904/DTD/svg10.dtd">
<svg version="1.0" xmlns="http://www.w3.org/2000/svg"
 width="800.000000pt" height="800.000000pt" viewBox="0 0 800.000000 800.000000"
 preserveAspectRatio="xMidYMid meet">
<metadata>
Created by potrace 1.16, written by Peter Selinger 2001-2019
</metadata>
<g transform="translate(0.000000,800.000000) scale(0.100000,-0.100000)"
fill="red" stroke="red">
<path d="M2505 6384 c-444 -69 -825 -332 -1043 -722 -135 -242 -190 -481 -178
-782 15 -409 130 -723 400 -1093 88 -120 93 -126 205 -256 173 -200 643 -653
946 -912 22 -19 45 -38 51 -44 43 -40 623 -525 734 -615 104 -83 215 -175 220
-180 3 -3 40 -34 83 -69 l78 -63 47 39 c25 21 65 54 88 73 22 19 83 69 134
110 51 41 152 125 225 185 73 61 166 137 206 170 72 58 489 414 499 425 3 3
43 39 90 80 919 810 1299 1320 1400 1880 110 607 -90 1159 -543 1501 -235 177
-503 272 -807 286 -470 21 -870 -154 -1238 -542 l-101 -106 -133 133 c-73 74
-162 156 -198 183 -36 27 -67 52 -70 56 -3 4 -50 35 -105 69 -283 172 -658
246 -990 194z m475 -333 c326 -69 558 -238 922 -673 49 -60 93 -108 98 -108 5
0 46 46 93 103 97 118 260 293 332 357 27 25 59 53 70 63 11 10 48 38 82 63
343 246 799 292 1177 120 116 -53 214 -123 316 -225 180 -180 278 -376 316
-627 40 -264 -12 -569 -142 -844 -162 -341 -525 -747 -1204 -1346 -125 -110
-163 -143 -400 -341 -69 -58 -147 -123 -174 -146 -28 -23 -88 -73 -134 -110
-46 -38 -94 -77 -106 -87 -119 -101 -219 -180 -225 -180 -5 0 -80 59 -167 131
-88 73 -189 156 -225 185 -36 29 -72 59 -80 66 -8 7 -66 56 -129 108 -63 52
-126 105 -140 116 -14 12 -74 64 -135 115 -382 325 -867 790 -1038 997 -299
363 -440 656 -477 994 -34 316 24 567 188 818 51 77 214 237 297 291 139 91
285 148 443 174 116 19 318 13 442 -14z"/>
</g>
</svg>
