<?xml version="1.0" standalone="no"?>
<!DOCTYPE svg PUBLIC "-//W3C//DTD SVG 20010904//EN"
 "http://www.w3.org/TR/2001/REC-SVG-20010904/DTD/svg10.dtd">
<svg version="1.0" xmlns="http://www.w3.org/2000/svg"
 width="900.000000pt" height="540.000000pt" viewBox="0 0 900.000000 540.000000"
 preserveAspectRatio="xMidYMid meet">
<metadata>
Created by potrace 1.16, written by Peter Selinger 2001-2019
</metadata>
<g transform="translate(0.000000,540.000000) scale(0.100000,-0.100000)"
fill="#000000" stroke="none">
<path d="M4130 5345 c-511 -77 -818 -137 -1032 -199 -185 -54 -483 -207 -914
-470 -128 -78 -253 -153 -278 -169 -86 -50 -93 -110 -30 -253 20 -43 59 -144
88 -224 165 -450 337 -804 538 -1104 115 -173 197 -274 333 -415 187 -193 343
-311 543 -411 101 -50 287 -118 297 -109 3 3 12 43 20 90 31 161 86 365 158
582 40 119 68 217 63 217 -77 -3 -217 -68 -331 -152 -76 -57 -234 -210 -307
-298 l-46 -55 5 45 c12 99 66 279 112 375 84 176 184 283 325 351 93 45 161
57 279 52 l99 -5 67 136 c36 75 79 168 94 206 77 192 202 301 376 327 100 15
171 0 249 -51 33 -23 62 -41 64 -41 6 0 -11 204 -27 315 -36 251 -108 566
-191 825 -25 80 -59 190 -75 245 -38 133 -45 147 -85 186 -32 31 -40 34 -102
35 -37 1 -168 -13 -292 -31z m168 -1080 c82 -26 262 -134 262 -158 0 -9 -122
-102 -170 -130 -159 -91 -339 -93 -514 -5 -66 33 -166 103 -166 117 0 14 144
109 215 143 139 65 243 74 373 33z m-968 -375 c0 -39 -60 -206 -95 -265 -103
-171 -266 -254 -502 -255 -69 0 -93 3 -93 13 0 36 46 171 83 242 99 192 261
283 505 284 95 1 102 0 102 -19z"/>
<path d="M4569 3523 c-19 -16 -46 -58 -66 -103 -19 -41 -54 -113 -77 -160 -54
-104 -142 -304 -206 -465 -306 -767 -381 -1455 -214 -1961 65 -197 177 -386
303 -513 123 -124 187 -158 346 -182 91 -15 337 -5 435 16 199 43 426 143 619
273 426 286 848 805 1186 1457 43 83 95 173 115 200 48 65 77 121 85 167 13
69 -13 96 -283 294 -486 356 -676 480 -927 604 -241 119 -458 194 -910 314
-94 25 -200 54 -235 66 -90 28 -131 26 -171 -7z m248 -1097 c118 -32 222 -109
308 -230 47 -67 89 -145 82 -153 -17 -16 -135 -36 -217 -36 -208 0 -368 101
-500 316 -27 45 -50 84 -50 88 0 26 292 38 377 15z m1046 -511 c157 -41 274
-143 359 -313 23 -45 39 -84 36 -87 -26 -27 -277 -33 -359 -9 -67 19 -170 74
-228 122 -79 64 -209 266 -179 277 69 26 289 31 371 10z m-1353 -488 c89 -118
210 -236 294 -286 168 -100 419 -134 721 -96 66 8 124 15 128 15 16 0 -97 -91
-187 -152 -295 -197 -560 -246 -776 -141 -77 37 -186 150 -232 238 -72 140
-115 328 -121 535 -2 63 -2 123 1 133 3 12 18 -6 49 -62 25 -44 81 -126 123
-184z"/>
</g>
</svg>
