<?xml version="1.0" standalone="no"?>
<!DOCTYPE svg PUBLIC "-//W3C//DTD SVG 20010904//EN"
 "http://www.w3.org/TR/2001/REC-SVG-20010904/DTD/svg10.dtd">
<svg version="1.0" xmlns="http://www.w3.org/2000/svg"
 width="300.000000pt" height="756.000000pt" viewBox="0 0 300.000000 756.000000"
 preserveAspectRatio="xMidYMid meet">
<metadata>
Created by potrace 1.16, written by Peter Selinger 2001-2019
</metadata>
<g transform="translate(0.000000,756.000000) scale(0.100000,-0.100000)"
fill="#000000" stroke="none">
<path d="M1380 7273 c-25 -9 -46 -20 -48 -24 -2 -5 -10 -9 -18 -9 -8 0 -14 -4
-14 -9 0 -5 -8 -12 -17 -15 -10 -4 -30 -23 -44 -44 -43 -64 -51 -105 -46 -247
5 -121 10 -157 36 -290 5 -27 10 -76 10 -108 l1 -57 -85 -55 c-47 -30 -89 -55
-94 -55 -5 0 -11 -3 -13 -7 -1 -5 -30 -21 -63 -38 -68 -33 -138 -76 -143 -87
-2 -5 -8 -8 -13 -8 -13 0 -59 -46 -59 -60 0 -5 -3 -10 -8 -10 -18 0 -48 -97
-63 -203 -10 -71 -3 -144 26 -287 9 -41 20 -106 25 -145 18 -125 29 -189 45
-260 9 -38 19 -80 22 -92 3 -13 9 -23 14 -23 5 0 9 -7 9 -15 0 -16 44 -91 64
-110 19 -18 65 -45 76 -45 6 0 18 -7 27 -15 12 -13 14 -37 9 -148 -3 -72 -9
-258 -12 -412 -5 -294 -7 -268 42 -550 3 -16 9 -39 13 -50 39 -97 50 -294 27
-489 -25 -219 -20 -341 20 -478 8 -26 14 -56 14 -67 0 -11 4 -22 9 -25 5 -3
11 -18 14 -33 3 -16 12 -57 21 -93 18 -76 22 -324 5 -367 -6 -15 -20 -38 -31
-50 -21 -23 -26 -23 -250 -23 -299 0 -278 13 -278 -170 0 -155 3 -150 -79
-150 -52 0 -81 -20 -81 -56 0 -29 36 -64 65 -64 l25 0 0 -460 c0 -328 -3 -460
-11 -460 -6 0 -27 -7 -47 -16 -21 -9 -48 -21 -62 -26 -14 -6 -33 -14 -42 -19
-10 -5 -22 -9 -28 -9 -9 0 -80 -31 -170 -74 -44 -21 -45 -22 -53 -81 -5 -33
-6 -113 -4 -178 4 -94 9 -122 23 -138 17 -19 46 -19 1361 -19 1158 0 1346 2
1359 14 31 32 45 216 24 326 -10 53 -30 79 -62 80 -10 0 -18 5 -18 10 0 6 -11
10 -25 10 -14 0 -25 5 -25 10 0 6 -7 10 -15 10 -8 0 -23 4 -33 10 -15 8 -60
27 -117 50 -11 4 -36 15 -57 24 -20 9 -41 16 -47 16 -8 0 -11 132 -11 459 l0
460 27 3 c14 2 35 15 47 31 19 26 19 30 5 55 -13 24 -22 28 -79 32 l-65 5 -3
135 c-4 193 16 180 -282 180 -213 0 -237 2 -250 18 -38 45 -41 64 -37 237 4
161 8 203 26 250 13 33 28 86 44 160 38 170 45 277 27 403 -28 199 -32 269
-20 368 7 54 16 108 20 119 5 11 11 34 14 50 3 17 12 62 21 100 9 39 21 95 27
125 15 82 22 522 9 600 -6 36 -12 126 -14 201 -2 115 0 138 15 152 9 9 23 17
30 17 27 0 95 70 122 123 36 74 65 165 66 204 0 17 4 34 9 37 4 3 11 31 14 63
8 77 34 246 47 308 30 140 31 206 5 330 -15 70 -85 185 -114 185 -5 0 -11 4
-13 8 -3 9 -95 63 -163 97 -22 11 -41 23 -43 28 -2 4 -8 7 -13 7 -6 0 -35 16
-65 35 -30 19 -58 35 -63 35 -4 0 -20 12 -35 27 -34 34 -33 52 16 303 7 36 13
124 13 195 0 109 -3 137 -19 170 -27 55 -81 106 -141 135 -66 31 -216 38 -285
13z m200 -116 c102 -37 120 -67 120 -202 -1 -59 -9 -145 -22 -210 -11 -60 -23
-154 -25 -207 -6 -142 -2 -147 265 -306 29 -18 60 -32 68 -32 8 0 14 -3 14 -7
0 -5 20 -17 45 -28 25 -11 45 -22 45 -26 0 -3 11 -12 25 -19 14 -7 25 -19 25
-27 0 -7 5 -13 10 -13 6 0 10 -8 10 -18 0 -10 4 -22 8 -27 18 -21 34 -124 29
-181 -8 -79 -17 -125 -27 -149 -5 -11 -11 -38 -14 -60 -20 -169 -28 -218 -62
-380 -3 -16 -17 -54 -30 -83 -13 -29 -24 -55 -24 -58 0 -11 -29 -34 -44 -34
-86 0 -150 -149 -128 -297 27 -175 35 -587 14 -723 -12 -80 -21 -126 -47 -230
-31 -129 -37 -178 -42 -333 -3 -113 -1 -162 7 -172 15 -18 15 -407 0 -435 -5
-10 -10 -29 -10 -43 0 -13 -3 -27 -7 -31 -5 -4 -13 -29 -20 -54 -6 -26 -17
-65 -23 -87 -18 -63 -33 -182 -34 -275 0 -100 13 -220 25 -220 5 0 9 -4 9 -10
0 -6 -83 -10 -230 -10 -126 0 -230 4 -230 8 0 4 5 13 11 19 15 15 23 282 11
368 -13 86 -21 124 -32 150 -4 11 -15 49 -25 85 -9 36 -20 72 -25 81 -16 31
-21 263 -9 374 16 137 16 360 1 440 -11 59 -16 82 -47 220 -31 140 -37 193
-42 380 -3 119 -1 214 7 255 16 96 19 442 3 447 -7 3 -13 11 -13 18 0 19 -71
75 -95 75 -33 0 -66 55 -96 160 -21 72 -31 125 -63 345 -8 55 -20 120 -27 145
-16 63 -23 220 -10 233 6 6 11 22 11 35 0 24 38 102 50 102 3 0 15 8 26 18 23
19 33 26 136 80 126 68 183 101 218 129 61 48 80 67 80 79 0 8 5 14 11 14 13
0 6 171 -10 250 -23 108 -29 166 -30 268 -1 124 12 161 67 187 20 10 44 22 52
26 23 12 101 10 140 -4z m700 -5212 l0 -95 -769 0 c-692 0 -769 2 -775 16 -8
21 -8 159 1 167 3 4 352 7 775 7 l768 0 0 -95z m70 -664 c0 -350 -3 -450 -12
-453 -11 -4 -1639 -3 -1660 1 -5 0 -8 204 -8 451 l0 450 840 0 840 0 0 -449z
m125 -601 c-9 -14 -1935 -14 -1935 0 0 7 330 10 971 10 644 0 968 -3 964 -10z
m293 -199 c2 -30 1 -65 -3 -78 l-5 -23 -1253 2 -1252 3 -3 64 c-2 35 -1 70 2
77 5 12 210 14 1258 12 l1253 -3 3 -54z"/>
</g>
</svg>
