<?xml version="1.0" standalone="no"?>
<!DOCTYPE svg PUBLIC "-//W3C//DTD SVG 20010904//EN"
 "http://www.w3.org/TR/2001/REC-SVG-20010904/DTD/svg10.dtd">
<svg version="1.0" xmlns="http://www.w3.org/2000/svg"
 width="1300.000000pt" height="1300.000000pt" viewBox="0 0 1300.000000 1300.000000"
 preserveAspectRatio="xMidYMid meet">
<metadata>
Created by potrace 1.16, written by Peter Selinger 2001-2019
</metadata>
<g transform="translate(0.000000,1300.000000) scale(0.100000,-0.100000)"
fill="#000000" stroke="none">
<path d="M4873 10015 c-12 -8 -166 -305 -363 -698 l-343 -683 -161 -22 c-1412
-195 -1357 -187 -1383 -217 -25 -29 -29 -59 -10 -91 11 -18 799 -802 990 -984
l78 -74 62 60 62 59 -59 -62 c-32 -33 -55 -66 -52 -72 4 -5 -9 -97 -28 -203
-19 -106 -48 -272 -65 -368 -88 -501 -141 -801 -151 -851 -16 -88 -13 -123 13
-147 32 -30 100 -28 136 5 3 2 -29 38 -70 81 l-74 77 80 -77 80 -76 70 37 c39
20 286 149 550 286 722 374 719 372 734 395 35 52 -5 130 -66 130 -14 0 -107
-42 -207 -94 -196 -101 -362 -188 -781 -405 -172 -89 -271 -136 -273 -127 -1
6 34 217 78 467 170 952 162 897 146 927 -8 15 -95 106 -193 201 -374 364
-793 785 -785 792 4 3 79 16 167 28 171 23 376 51 730 101 121 17 272 37 335
46 63 8 127 19 142 25 23 9 73 104 338 635 172 343 315 624 319 624 4 0 46
-80 94 -177 47 -98 147 -304 223 -458 75 -154 174 -357 219 -451 71 -149 86
-172 113 -183 37 -16 86 -1 102 30 23 41 9 84 -103 313 -63 127 -139 283 -169
346 -269 560 -404 828 -425 848 -28 25 -69 29 -100 7z"/>
<path d="M8046 10008 c-26 -25 -736 -1434 -736 -1463 0 -9 13 -30 29 -46 33
-33 74 -38 109 -13 14 10 140 251 336 642 l314 627 70 -145 c38 -80 117 -242
174 -360 244 -498 317 -648 342 -703 32 -66 55 -81 141 -91 33 -4 96 -13 140
-21 44 -8 190 -30 325 -50 266 -40 742 -111 803 -121 l38 -6 -203 -196 c-112
-108 -255 -246 -318 -307 -406 -390 -490 -475 -495 -502 -3 -15 46 -333 108
-705 63 -373 110 -678 105 -678 -5 0 -134 67 -286 149 -152 81 -335 179 -407
216 -71 38 -134 71 -140 75 -5 4 -68 38 -140 75 -71 38 -150 79 -174 92 -52
27 -62 28 -100 8 -42 -21 -56 -69 -33 -108 17 -30 88 -71 657 -372 66 -35 255
-136 420 -224 182 -98 311 -161 328 -161 31 0 76 39 78 67 2 30 -3 78 -8 87
-3 4 -38 -23 -77 -60 l-71 -69 73 75 72 76 -95 579 c-52 319 -105 637 -117
706 l-21 125 134 130 c73 71 194 188 268 259 75 72 204 195 286 275 463 448
431 411 421 464 -12 62 65 47 -1086 220 -162 25 -335 51 -384 58 l-89 12 -140
286 c-76 157 -163 335 -192 395 -233 484 -345 704 -363 714 -32 17 -69 13 -96
-11z"/>
<path d="M6523 9418 c-12 -13 -172 -325 -357 -695 -309 -619 -337 -672 -363
-677 -28 -6 -104 -16 -963 -136 -239 -33 -455 -63 -480 -67 -47 -6 -100 -47
-100 -78 0 -44 10 -54 809 -841 l293 -289 -21 -115 c-11 -63 -39 -218 -61
-345 -23 -126 -47 -264 -55 -305 -8 -41 -32 -181 -55 -310 -22 -129 -47 -268
-55 -309 -22 -108 -20 -147 10 -176 44 -45 30 -51 605 248 108 56 201 104 530
274 74 39 172 90 218 113 l83 42 47 -25 c70 -37 171 -91 432 -229 362 -192
540 -287 718 -383 168 -89 190 -95 230 -62 36 29 34 48 -83 755 -63 384 -119
721 -125 750 -7 38 -6 58 2 70 6 9 140 141 297 292 811 780 801 769 801 810 0
65 -22 76 -216 105 -93 13 -198 30 -234 36 -36 6 -137 21 -225 35 -440 67
-571 86 -695 104 -74 11 -148 23 -164 26 -26 6 -40 31 -168 293 -77 157 -162
331 -188 386 -168 352 -339 693 -354 708 -26 25 -87 23 -113 -5z m119 -375
c31 -65 102 -210 156 -323 335 -690 394 -806 414 -822 16 -12 87 -27 228 -49
113 -17 277 -41 365 -55 264 -40 543 -82 655 -99 171 -25 163 -19 105 -73 -63
-58 -509 -486 -680 -653 -71 -69 -161 -155 -198 -190 -38 -35 -75 -75 -82 -89
-12 -23 -4 -85 71 -541 46 -283 97 -593 114 -689 16 -96 28 -176 26 -178 -4
-3 -172 85 -852 449 -258 139 -381 199 -403 199 -19 0 -77 -24 -149 -61 -915
-478 -1112 -578 -1112 -564 0 6 54 316 120 687 66 372 120 682 120 689 1 8
-225 238 -502 511 -277 273 -501 499 -498 501 3 3 312 48 688 100 446 62 690
100 705 110 14 9 137 245 332 636 170 341 312 621 315 621 3 0 31 -53 62 -117z"/>
<path d="M4360 4963 c-154 -31 -285 -154 -326 -305 -20 -75 -20 -521 0 -596
31 -114 119 -218 235 -275 l66 -32 603 -3 c488 -2 602 0 596 10 -5 10 -4 11 7
1 19 -19 1949 -19 1968 -1 11 11 12 10 7 0 -6 -10 99 -12 551 -10 l558 3 65
32 c115 57 195 148 230 261 18 57 20 93 20 312 0 277 -8 323 -70 421 -39 60
-125 133 -177 150 -21 6 -43 15 -48 20 -6 4 -29 11 -50 14 -22 4 -971 7 -2109
8 -1533 2 -2084 -1 -2126 -10z m4263 -183 c56 -26 110 -88 132 -150 22 -62 22
-477 0 -541 -20 -57 -67 -110 -129 -143 l-49 -26 -2095 0 -2096 0 -44 21 c-56
28 -109 80 -133 133 -16 36 -19 69 -19 283 0 233 1 245 23 295 36 82 100 131
190 146 21 4 969 7 2105 6 l2067 -1 48 -23z"/>
<path d="M2748 4659 c-14 -6 -33 -25 -42 -44 -29 -61 -5 -88 261 -298 37 -30
49 -45 42 -53 -5 -7 -75 -65 -154 -130 -149 -122 -173 -152 -156 -196 23 -61
-9 -58 580 -58 l538 0 23 25 c25 27 25 61 -5 165 -12 42 -15 109 -15 297 0
241 0 242 -24 270 l-24 28 -499 2 c-308 1 -508 -2 -525 -8z m902 -346 c0 -104
3 -205 6 -225 l7 -38 -323 0 -322 0 106 86 c86 70 107 92 112 119 3 18 1 42
-5 52 -5 11 -53 55 -105 98 -53 44 -96 83 -96 87 0 4 140 8 310 8 l310 0 0
-187z"/>
<path d="M9215 4663 c-11 -2 -29 -6 -41 -8 -39 -8 -44 -44 -45 -293 0 -207 -3
-246 -20 -307 -27 -92 -27 -120 1 -150 l23 -25 499 0 c301 0 506 4 517 10 25
13 45 64 37 95 -4 17 -59 67 -171 156 l-165 130 132 105 c73 57 147 117 165
132 59 52 54 120 -12 148 -29 12 -108 14 -467 12 -238 0 -442 -3 -453 -5z
m635 -171 c0 -5 -28 -29 -62 -54 -106 -77 -158 -131 -158 -162 0 -43 11 -56
119 -141 l101 -80 -277 -3 c-152 -1 -277 -1 -277 0 -1 2 0 103 2 226 l4 222
274 0 c151 0 274 -4 274 -8z"/>
</g>
</svg>
